<svg width="250" height="250" viewBox="0 0 250 250" fill="none" xmlns="http://www.w3.org/2000/svg">
<path d="M157.88 104.865C157.88 104.82 157.88 104.82 157.88 104.82C157.88 104.729 157.833 104.638 157.833 104.548C157.833 104.502 157.833 104.457 157.787 104.412C157.74 104.321 157.74 104.23 157.693 104.139C157.693 104.094 157.647 104.049 157.647 104.003C157.6 103.913 157.554 103.822 157.461 103.731C157.414 103.686 157.414 103.641 157.368 103.595C157.321 103.505 157.228 103.459 157.135 103.368C157.089 103.323 157.089 103.323 157.042 103.278C156.949 103.187 156.856 103.142 156.763 103.096C156.716 103.096 156.716 103.051 156.67 103.051C156.577 103.006 156.484 102.96 156.391 102.915C156.344 102.915 156.297 102.87 156.251 102.87C156.251 102.87 156.251 102.87 156.204 102.87L148.34 100.783L151.411 78.2878L151.551 77.1993L151.458 77.1086C151.504 71.6207 147.363 66.9493 141.593 66.2236C136.055 65.498 131.029 68.7181 129.308 73.7524H129.121L127.167 87.9481C126.376 87.7214 125.538 87.5853 124.701 87.5853C120.559 87.5853 117.023 90.3519 116.092 94.0256L115.859 94.0709V94.207C111.904 95.3862 108.46 97.9713 106.273 101.509C106.227 101.6 106.134 101.69 106.087 101.826L91.8475 103.142C90.8238 103.096 89.8931 103.686 89.5208 104.593C89.4277 104.82 89.3812 105.092 89.3812 105.364V105.409L87.6594 176.161C87.6594 177.114 88.2178 177.976 89.102 178.293L102.411 183.599C102.411 183.599 102.411 183.599 102.457 183.599C102.55 183.645 102.643 183.645 102.737 183.69C102.783 183.69 102.83 183.736 102.876 183.736C102.969 183.736 103.109 183.781 103.202 183.781C103.248 183.781 103.248 183.781 103.295 183.781C103.341 183.781 103.388 183.781 103.435 183.781C103.481 183.781 103.574 183.781 103.621 183.781L159.648 176.161C160.858 175.98 161.695 174.982 161.649 173.803L157.88 104.865ZM133.403 76.5643L133.449 76.2922C134.008 72.5732 137.218 70.1694 140.988 70.623C144.617 71.0765 147.177 74.1606 146.758 77.6528L143.175 104.139L129.447 105.727L133.403 76.5643ZM124.654 92.03C125.306 92.03 125.957 92.166 126.516 92.4382L126.236 94.3884C124.654 93.8441 123.025 93.5267 121.35 93.4813C122.095 92.5742 123.305 92.03 124.654 92.03ZM118.558 98.1981L118.698 98.1528C119.489 98.0167 120.047 98.0167 120.652 98.0167C122.374 98.0167 124.049 98.3795 125.585 99.0598L124.608 106.271L108.646 108.085V108.04C108.646 107.949 108.693 107.904 108.693 107.813C108.693 107.722 108.693 107.632 108.693 107.496C108.693 107.36 108.739 107.269 108.739 107.133L108.786 106.861V106.77C109.158 106.226 109.251 105.682 109.437 105.137C109.577 104.956 109.67 104.729 109.717 104.502C109.856 104.276 109.996 104.049 110.182 103.777C112.043 100.829 115.068 98.7877 118.558 98.1981ZM93.9415 107.995L101.899 109.128L101.759 109.219C101.713 109.264 101.713 109.264 101.666 109.31C101.573 109.355 101.527 109.446 101.48 109.491C101.434 109.537 101.387 109.582 101.387 109.627C101.34 109.673 101.294 109.763 101.247 109.809C101.201 109.854 101.201 109.945 101.154 109.99C101.108 110.081 101.108 110.126 101.061 110.217C101.061 110.262 101.015 110.353 101.015 110.398C101.015 110.489 100.968 110.534 100.968 110.625C100.968 110.716 100.922 110.761 100.922 110.852C100.922 110.897 100.875 110.943 100.875 110.943V178.157L92.2663 174.71L93.9415 107.995ZM105.575 178.973V112.983L153.366 107.496L156.856 171.943L105.575 178.973Z" fill="#2688FF"/>
<path d="M36.1778 169.94L12.1122 180.03L10.2494 175.054L20.6742 171.034C21.1845 170.827 21.8904 170.563 22.7911 170.243C23.9717 169.824 25.1358 169.448 26.2844 169.115C27.4347 168.788 28.6418 168.449 29.9065 168.1L13.4354 170.907L11.8314 166.623L26.1929 158.181C23.5693 159.404 21.1707 160.402 18.998 161.174L17.1042 161.81L6.61358 165.343L4.78741 160.467L29.8644 153.078L32.0518 158.921L17.1654 167.229L33.9932 164.106L36.1778 169.94ZM40.9028 199.923C37.4343 202.325 34.1807 203.504 31.141 203.461C28.0977 203.413 25.6013 202.052 23.6498 199.376C21.681 196.675 21.1698 193.931 22.1145 191.143C23.0563 188.349 25.2812 185.738 28.789 183.309C32.2521 180.911 35.5057 179.735 38.549 179.783C41.5932 179.822 44.0933 181.183 46.0475 183.864C48.0127 186.559 48.5247 189.304 47.582 192.097C46.6318 194.888 44.4051 197.497 40.9028 199.923ZM37.2322 194.889C39.8539 193.073 41.5749 191.497 42.3952 190.159C43.2099 188.826 43.1953 187.58 42.3513 186.423C41.5036 185.261 40.302 184.838 38.7456 185.154C37.181 185.469 35.0869 186.534 32.4651 188.35C29.8379 190.169 28.1142 191.748 27.2948 193.085C26.4764 194.413 26.491 195.659 27.3387 196.821C28.1965 197.997 29.4017 198.425 30.9545 198.105C32.5127 197.781 34.605 196.708 37.2322 194.889ZM63.5986 219.174C60.9147 222.392 58.1018 224.375 55.1609 225.124C52.2155 225.87 49.4355 225.207 46.822 223.137C44.1848 221.047 42.9402 218.535 43.0874 215.602C43.2301 212.665 44.6584 209.57 47.3725 206.315C50.0528 203.102 52.8656 201.123 55.812 200.378C58.7565 199.624 61.5383 200.284 64.1564 202.359C66.7891 204.445 68.0337 206.957 67.891 209.894C67.7401 212.831 66.309 215.925 63.5986 219.174ZM58.6816 215.278C60.7107 212.846 61.9379 210.879 62.3613 209.377C62.7811 207.879 62.4262 206.683 61.296 205.788C60.1611 204.888 58.8873 204.793 57.4736 205.503C56.0516 206.214 54.326 207.785 52.2959 210.217C50.2631 212.654 49.0341 214.624 48.6107 216.125C48.1864 217.619 48.5412 218.815 49.677 219.714C50.8264 220.625 52.1048 220.723 53.5131 220.01C54.9259 219.292 56.6487 217.714 58.6816 215.278ZM68.5988 236.371L79.4479 213.175L85.0727 215.674L76.2592 234.518L86.5641 239.097L83.9817 243.206L68.5988 236.371ZM120.957 224.15L118.754 249.593L113.372 248.851L114.644 237.995C114.697 237.458 114.791 236.728 114.926 235.803C115.101 234.59 115.31 233.412 115.549 232.268C115.795 231.124 116.057 229.927 116.337 228.675L111.12 244.159L106.487 243.52L105.609 227.197C105.48 230.029 105.254 232.56 104.931 234.792L104.614 236.72L102.871 247.403L97.597 246.677L102.721 221.637L109.04 222.508L109.548 239.219L114.646 223.28L120.957 224.15ZM150.319 234.21C150.859 238.323 150.394 241.676 148.924 244.269C147.447 246.863 145.039 248.368 141.697 248.785C138.326 249.206 135.602 248.353 133.523 246.228C131.439 244.102 130.123 240.959 129.576 236.799C129.037 232.692 129.505 229.341 130.982 226.748C132.451 224.149 134.86 222.641 138.207 222.223C141.572 221.804 144.297 222.656 146.381 224.781C148.461 226.913 149.773 230.057 150.319 234.21ZM144.034 234.995C143.625 231.885 143.009 229.664 142.185 228.328C141.362 227 140.228 226.426 138.783 226.606C137.332 226.787 136.383 227.621 135.936 229.108C135.484 230.602 135.462 232.904 135.87 236.014C136.28 239.13 136.896 241.354 137.72 242.688C138.538 244.018 139.672 244.592 141.122 244.411C142.591 244.228 143.546 243.393 143.987 241.907C144.427 240.415 144.443 238.111 144.034 234.995ZM175.927 219.438C176.607 221.021 176.741 222.527 176.329 223.959C175.923 225.387 175.111 226.681 173.89 227.839L184.445 235.182L177.971 237.823L168.884 230.959L167.28 231.614L171.143 240.609L165.432 242.939L155.333 219.423L162.925 216.326C166.245 214.971 168.981 214.548 171.134 215.055C173.289 215.554 174.887 217.016 175.927 219.438ZM170.04 221.84C169.552 220.706 168.867 220.013 167.984 219.764C167.101 219.516 165.973 219.671 164.602 220.23L162.721 220.998L165.635 227.783L167.759 226.916C169.013 226.404 169.838 225.734 170.232 224.907C170.629 224.084 170.565 223.062 170.04 221.84ZM191.704 204.489L204.974 220.857L200.116 224.598L186.847 208.23L181.068 212.68L178.122 209.046L194.736 196.25L197.212 200.248L191.704 204.489ZM227.577 196.768L218.75 190.33L214.948 195.282L223.775 201.72L220.071 206.543L199.13 191.269L202.834 186.446L210.874 192.309L214.675 187.358L206.635 181.494L210.345 176.663L231.286 191.938L227.577 196.768ZM237.841 158.471C239.373 159.038 240.574 159.928 241.446 161.143C242.316 162.357 242.793 163.811 242.873 165.505C242.952 167.204 242.603 169.049 241.827 171.04C240.292 174.983 237.894 177.691 234.634 179.161L232.493 175.104C234.849 173.907 236.509 172.069 237.474 169.591C237.94 168.397 238.045 167.341 237.792 166.425C237.546 165.506 236.952 164.872 236.01 164.523C235.12 164.194 234.303 164.24 233.561 164.661C232.82 165.082 231.867 166.021 230.703 167.476C228.745 169.954 226.951 171.561 225.319 172.299C223.684 173.029 221.94 173.051 220.083 172.365C218.625 171.825 217.508 170.96 216.733 169.768C215.957 168.577 215.554 167.194 215.524 165.62C215.486 164.049 215.794 162.426 216.446 160.751C217.811 157.244 219.976 154.793 222.942 153.397L225.052 157.204C224.059 157.754 223.212 158.431 222.508 159.235C221.806 160.038 221.263 160.932 220.881 161.916C220.452 163.017 220.322 163.959 220.491 164.743C220.654 165.524 221.125 166.059 221.901 166.346C222.418 166.537 222.908 166.554 223.372 166.397C223.839 166.247 224.353 165.893 224.914 165.335C225.479 164.785 226.233 163.924 227.176 162.754C228.878 160.6 230.552 159.154 232.196 158.414C233.843 157.669 235.725 157.688 237.841 158.471Z" fill="#2688FF"/>
<path d="M6.51893 75.0582L30.976 82.2016L29.1717 87.0572L18.7973 83.7061C18.2815 83.5492 17.5865 83.3166 16.7132 83.0082C15.561 82.6009 14.4491 82.1713 13.3782 81.7177C12.3092 81.2587 11.1927 80.773 10.0268 80.2605L24.124 88.2105L22.5703 92.3896L6.43023 89.9377C9.17085 90.6231 11.6033 91.3397 13.7257 92.0892L15.5455 92.7693L25.6493 96.5348L23.8853 101.282L0.403992 91.5099L2.52186 85.8121L18.9793 88.6873L4.40106 80.756L6.51893 75.0582ZM36.1307 52.1663C39.5142 54.5014 41.675 57.0388 42.6133 59.7812C43.5552 62.5182 43.076 65.1956 41.1748 67.8123C39.2636 70.4433 36.8394 71.7855 33.9004 71.8381C30.9622 71.8907 27.7818 70.7365 24.3581 68.3747C20.9746 66.0405 18.8137 63.5022 17.8755 60.7598C16.9373 58.0183 17.4174 55.341 19.3139 52.7287C21.2288 50.0932 23.6539 48.751 26.5884 48.7029C29.5275 48.6503 32.7079 49.8045 36.1307 52.1663ZM32.5644 57.0771C30.003 55.3098 27.9583 54.2759 26.4293 53.9747C24.9095 53.6716 23.739 54.0861 22.9178 55.2153C22.0975 56.3454 22.0866 57.5584 22.884 58.8561C23.6869 60.1564 25.3695 61.6903 27.9299 63.4567C30.4913 65.2241 32.5324 66.2589 34.0522 66.561C35.5775 66.8676 36.7507 66.4549 37.571 65.3257C38.4095 64.1715 38.4233 62.9496 37.614 61.6582C36.8083 60.3712 35.1257 58.8436 32.5644 57.0771ZM59.9111 31.6175C62.53 34.7494 63.9154 37.7583 64.0672 40.645C64.2227 43.5283 63.0266 45.9819 60.4762 48.0077C57.913 50.0451 55.208 50.7055 52.3622 49.9899C49.5165 49.2751 46.7685 47.333 44.1185 44.1646C41.4995 41.0327 40.1141 38.0239 39.9623 35.1371C39.8114 32.2503 41.0084 29.7958 43.5533 27.7744C46.122 25.7334 48.827 25.073 51.6682 25.7923C54.513 26.507 57.261 28.4491 59.9111 31.6175ZM55.1266 35.4187C53.1441 33.048 51.4579 31.5186 50.067 30.8296C48.6852 30.1416 47.4443 30.2352 46.3433 31.1095C45.2423 31.9847 44.8985 33.1505 45.3109 34.6086C45.7279 36.0711 46.9277 37.9873 48.9102 40.3581C50.8927 42.7288 52.5744 44.2573 53.9571 44.9454C55.3424 45.6379 56.5861 45.5469 57.6862 44.6726C58.811 43.7787 59.1603 42.6049 58.7342 41.1504C58.3117 39.6994 57.1092 37.7895 55.1266 35.4187ZM77.399 36.2725L66.8197 13.6676L72.3037 11.23L80.8987 29.5961L90.9466 25.1292L92.3915 29.6068L77.399 36.2725ZM116.733 0.264893L121.731 24.6675L116.485 25.3921L114.656 14.8904C114.556 14.3726 114.441 13.6649 114.311 12.7692C114.139 11.5856 114.007 10.427 113.916 9.29243C113.831 8.15697 113.747 6.96803 113.664 5.72473L113.073 21.5882L108.556 22.2112L103.208 7.16767C103.873 9.84768 104.364 12.2772 104.681 14.4564L104.918 16.3414L106.245 26.8047L101.115 27.5124L98.9573 2.71763L105.114 1.86826L110.227 17.3833L110.576 1.11426L116.733 0.264893ZM151.365 15.017C150.838 19.0249 149.551 22.0748 147.506 24.1684C145.468 26.2637 142.817 27.106 139.554 26.6978C136.273 26.2869 133.92 24.8288 132.494 22.3244C131.068 19.8199 130.623 16.5401 131.157 12.4858C131.685 8.47871 132.972 5.42794 135.017 3.33438C137.062 1.24082 139.712 0.39769 142.969 0.805885C146.255 1.21765 148.608 2.67485 150.028 5.17928C151.455 7.68371 151.9 10.9626 151.365 15.017ZM145.243 14.2505C145.644 11.2166 145.622 8.97157 145.177 7.51437C144.738 6.0643 143.815 5.25058 142.406 5.07411C140.997 4.89764 139.892 5.45735 139.091 6.75235C138.29 8.05358 137.688 10.2202 137.288 13.2541C136.889 16.287 136.908 18.5294 137.347 19.9795C137.785 21.4367 138.708 22.2531 140.117 22.4295C141.556 22.6096 142.67 22.0481 143.46 20.746C144.249 19.4492 144.844 17.2834 145.243 14.2505ZM182.53 21.1461C181.868 22.6844 180.886 23.803 179.584 24.5017C178.288 25.2031 176.807 25.5374 175.143 25.5044L177.121 37.6691L170.817 35.0898L169.504 24.2459L167.943 23.6078L164.169 32.3697L158.603 30.0926L168.47 7.18461L175.866 10.2104C179.101 11.5339 181.274 13.0972 182.387 14.8993C183.5 16.7023 183.548 18.7843 182.53 21.1461ZM176.797 18.8003C177.272 17.6988 177.297 16.762 176.871 15.992C176.446 15.2211 175.565 14.5624 174.228 14.0152L172.397 13.2665L169.55 19.877L171.615 20.7219C172.84 21.2228 173.883 21.3253 174.741 21.0285C175.599 20.7317 176.285 19.9893 176.797 18.8003ZM206.225 33.515L193.269 49.4462L188.546 45.7965L201.503 29.8662L195.881 25.5231L198.76 21.9839L214.934 34.4793L211.59 37.6602L206.225 33.515ZM212.32 70.0289L220.936 63.7758L217.244 58.9434L208.627 65.1965L205.023 60.4782L225.468 45.6396L229.073 50.3579L221.223 56.0549L224.916 60.8872L232.765 55.1903L236.365 59.9015L215.919 74.74L212.32 70.0289ZM233.996 98.3102C232.507 98.8566 231.043 98.9608 229.603 98.623C228.161 98.2799 226.848 97.5161 225.665 96.3325C224.484 95.1409 223.519 93.5741 222.769 91.6302C221.283 87.7827 221.245 84.2952 222.657 81.1669L226.905 82.7943C225.979 85.1499 225.982 87.5349 226.915 89.9484C227.364 91.1106 227.984 91.952 228.774 92.4707C229.562 92.9841 230.417 93.0723 231.337 92.7345C232.206 92.4154 232.774 91.8691 233.039 91.0955C233.304 90.3219 233.378 89.0367 233.262 87.2408C233.054 84.2007 233.304 81.9004 234.011 80.3389C234.718 78.7774 235.98 77.6634 237.798 76.9958C239.218 76.4753 240.605 76.4058 241.958 76.7873C243.315 77.175 244.524 77.9316 245.589 79.0582C246.655 80.191 247.502 81.5706 248.131 83.1981C249.454 86.6249 249.493 89.7809 248.246 92.665L244.178 91.1998C244.547 90.173 244.721 89.1454 244.7 88.1169C244.686 87.0911 244.493 86.0973 244.121 85.1339C243.707 84.0599 243.179 83.289 242.538 82.8228C241.898 82.3558 241.199 82.2614 240.444 82.5385C239.938 82.7239 239.569 83.018 239.335 83.42C239.097 83.8291 238.953 84.4128 238.902 85.1713C238.857 85.9271 238.878 87.0322 238.966 88.485C239.148 91.1231 238.883 93.2309 238.169 94.8076C237.455 96.3842 236.064 97.5518 233.996 98.3102Z" fill="#2688FF"/>
<path d="M0.242432 127.509C0.242432 122.131 4.71593 117.771 10.2346 117.771C15.7525 117.771 20.226 122.131 20.226 127.509C20.226 132.887 15.7525 137.247 10.2346 137.248C4.71685 137.248 0.243346 132.888 0.242432 127.509ZM229.67 127.509C229.67 122.131 234.144 117.771 239.662 117.771C245.179 117.771 249.653 122.131 249.654 127.509C249.654 132.887 245.18 137.247 239.662 137.248C234.144 137.248 229.67 132.888 229.67 127.509Z" fill="#2688FF"/>
</svg>
